<svg xmlns="http://www.w3.org/2000/svg" width="14" height="16" viewBox="0 0 14 16">
    <g fill="none" fill-rule="evenodd" stroke-linecap="round" stroke-linejoin="round">
        <path stroke="#081E3D" d="M8.5 15.5v-1l3.979-.781c.577-.046 1.021-.527 1.021-1.106V11.5H.5v1.113c0 .579.444 1.06 1.021 1.106L5.5 14.5v1"/>
        <path stroke="#FF9C1C" d="M6.611.5c-.143.858-.49 1.67-1.011 2.367-.6.8-2.1 1.6-2.1 3.571-.005 1.268.677 2.44 1.781 3.062.037-.554.322-1.063.775-1.384.432-.29.762-.708.944-1.196.945.544 1.58 1.499 1.719 2.58 1.104-.623 1.786-1.794 1.781-3.062 0-.999-.177-3.719-3.889-5.938z"/>
    </g>
</svg>
