<svg xmlns="http://www.w3.org/2000/svg" width="18" height="14" viewBox="0 0 18 14">
    <g fill="none" fill-rule="evenodd" stroke-linecap="round" stroke-linejoin="round">
        <g stroke="#FF9C1C">
            <path d="M.5 5.5c1.448.004 2.823-.637 3.75-1.75 1.736 2.071 4.822 2.343 6.893.607.22-.184.423-.387.607-.607.925 1.115 2.301 1.758 3.75 1.75M.5 2.5c1.448.004 2.823-.637 3.75-1.75 1.736 2.071 4.822 2.343 6.893.607.22-.184.423-.387.607-.607.925 1.115 2.301 1.758 3.75 1.75" transform="translate(1) translate(0 7)"/>
        </g>
        <path stroke="#081E3D" d="M4.5 2.5c0-1.105.895-2 2-2h0c1.105 0 2 .895 2 2v3" transform="translate(1)"/>
    </g>
</svg>
