<svg xmlns="http://www.w3.org/2000/svg" width="18" height="18" viewBox="0 0 18 18">
    <g fill="none" fill-rule="evenodd" stroke-linecap="round" stroke-linejoin="round" transform="translate(1 1)">
        <g stroke="#FF9C1C">
            <path d="M.5 5.5c1.448.004 2.823-.637 3.75-1.75 1.736 2.071 4.822 2.343 6.893.607.22-.184.423-.387.607-.607.925 1.115 2.301 1.758 3.75 1.75M.5 2.5c1.448.004 2.823-.637 3.75-1.75 1.736 2.071 4.822 2.343 6.893.607.22-.184.423-.387.607-.607.925 1.115 2.301 1.758 3.75 1.75" transform="translate(0 10)"/>
        </g>
        <circle cx="8" cy="2" r="1.5" stroke="#081E3D"/>
        <g stroke="#081E3D" transform="translate(1)">
            <circle cx="7" cy="2" r="1.5"/>
            <path d="M13.5 1.5L9.5 5.5 4.5 5.5.5 1.5M4.5 5.5L4.5 9.5M9.5 5.5L9.5 9.5"/>
        </g>
    </g>
</svg>
